<?xml version="1.0" encoding="iso-8859-1"?>
<!-- Generator: Adobe Illustrator 19.0.0, SVG Export Plug-In . SVG Version: 6.00 Build 0)  -->
<svg version="1.1" id="Capa_1" xmlns="http://www.w3.org/2000/svg" xmlns:xlink="http://www.w3.org/1999/xlink" x="0px" y="0px"
	 viewBox="0 0 512 512" style="enable-background:new 0 0 512 512;" xml:space="preserve">
<circle style="fill:#D3843D;" cx="256" cy="256" r="256"/>
<circle style="fill:#FFD782;" cx="256" cy="256" r="203.034"/>
<path style="fill:#F49E21;" d="M423.724,247.172H277.31l108.518-108.518c3.39-3.505,3.293-9.092-0.221-12.482
	c-3.425-3.302-8.845-3.302-12.262,0L264.828,234.69V88.276c0-4.873-3.955-8.828-8.828-8.828s-8.828,3.955-8.828,8.828V234.69
	L138.655,126.173c-3.505-3.39-9.092-3.293-12.482,0.221c-3.302,3.425-3.302,8.845,0,12.262L234.69,247.172H88.276
	c-4.873,0-8.828,3.955-8.828,8.828s3.955,8.828,8.828,8.828H234.69L126.173,373.345c-3.505,3.39-3.602,8.978-0.221,12.482
	c3.39,3.505,8.978,3.602,12.482,0.221c0.071-0.071,0.15-0.141,0.221-0.221L247.172,277.31v146.414c0,4.873,3.955,8.828,8.828,8.828
	s8.828-3.955,8.828-8.828V277.31l108.518,108.518c3.505,3.39,9.092,3.293,12.482-0.212c3.302-3.425,3.302-8.845,0-12.27
	L277.31,264.828h146.414c4.873,0,8.828-3.955,8.828-8.828S428.597,247.172,423.724,247.172z"/>
<g>
	<circle style="fill:#DA1C4B;" cx="397.241" cy="317.793" r="26.483"/>
	<circle style="fill:#DA1C4B;" cx="123.586" cy="203.034" r="26.483"/>
	<path style="fill:#DA1C4B;" d="M229.517,185.379c-2.339,0-4.59-0.927-6.241-2.586l-17.655-17.655
		c-3.39-3.505-3.293-9.092,0.221-12.482c3.425-3.302,8.845-3.302,12.262,0l17.655,17.655c3.443,3.452,3.443,9.039,0,12.482
		C234.099,184.452,231.857,185.379,229.517,185.379z"/>
	<path style="fill:#DA1C4B;" d="M291.31,114.759c-4.873,0-8.828-3.946-8.836-8.819c0-3.805,2.436-7.186,6.047-8.386l26.483-8.828
		c4.634-1.545,9.631,0.962,11.176,5.597c1.545,4.634-0.962,9.631-5.597,11.176l0,0l-26.483,8.828
		C293.199,114.617,292.255,114.767,291.31,114.759z"/>
	<path style="fill:#DA1C4B;" d="M353.103,238.345c-4.873,0-8.828-3.955-8.819-8.836c0-0.945,0.15-1.889,0.45-2.781l8.828-26.483
		c1.545-4.634,6.541-7.142,11.176-5.597c4.634,1.545,7.142,6.541,5.597,11.176l-8.828,26.483
		C360.307,235.926,356.917,238.354,353.103,238.345z"/>
</g>
<path style="fill:#8EC13F;" d="M235.758,374.855l-24.964-24.964c-3.443-3.443-9.039-3.443-12.482,0l-24.973,24.964
	c-3.443,3.443-3.443,9.039,0,12.482l24.973,24.973c3.443,3.443,9.039,3.443,12.482,0l24.964-24.973
	C239.201,383.894,239.201,378.297,235.758,374.855z"/>
<g>
	<path style="fill:#DA1C4B;" d="M132.414,335.448c-4.873,0-8.828-3.955-8.819-8.836c0-0.945,0.15-1.889,0.45-2.781l8.828-26.483
		c1.545-4.634,6.541-7.142,11.176-5.597c4.634,1.545,7.142,6.541,5.597,11.176l-8.828,26.483
		C139.617,333.03,136.227,335.457,132.414,335.448z"/>
	<path style="fill:#DA1C4B;" d="M308.966,370.759c-0.945,0-1.889-0.15-2.79-0.45l-26.483-8.828
		c-4.634-1.545-7.142-6.541-5.597-11.176c1.545-4.634,6.541-7.142,11.176-5.597l26.483,8.828c4.635,1.51,7.177,6.488,5.667,11.123
		C316.231,368.322,312.814,370.785,308.966,370.759z"/>
</g>
<g>
	<rect x="203.034" y="97.103" style="fill:#8EC13F;" width="17.655" height="17.655"/>
	<rect x="317.793" y="397.241" style="fill:#8EC13F;" width="17.655" height="17.655"/>
	<rect x="397.241" y="176.552" style="fill:#8EC13F;" width="17.655" height="17.655"/>
	<rect x="282.483" y="167.724" style="fill:#8EC13F;" width="17.655" height="17.655"/>
</g>
<g>
</g>
<g>
</g>
<g>
</g>
<g>
</g>
<g>
</g>
<g>
</g>
<g>
</g>
<g>
</g>
<g>
</g>
<g>
</g>
<g>
</g>
<g>
</g>
<g>
</g>
<g>
</g>
<g>
</g>
</svg>
